<svg id="visual" viewBox="0 0 900 600" width="900" height="600" xmlns="http://www.w3.org/2000/svg" xmlns:xlink="http://www.w3.org/1999/xlink" version="1.1"><path d="M0 97L13.7 105C27.3 113 54.7 129 82 122C109.3 115 136.7 85 163.8 86C191 87 218 119 245.2 121C272.3 123 299.7 95 327 95C354.3 95 381.7 123 409 135C436.3 147 463.7 143 491 126C518.3 109 545.7 79 573 68C600.3 57 627.7 65 654.8 77C682 89 709 105 736.2 115C763.3 125 790.7 129 818 133C845.3 137 872.7 141 886.3 143L900 145L900 0L886.3 0C872.7 0 845.3 0 818 0C790.7 0 763.3 0 736.2 0C709 0 682 0 654.8 0C627.7 0 600.3 0 573 0C545.7 0 518.3 0 491 0C463.7 0 436.3 0 409 0C381.7 0 354.3 0 327 0C299.7 0 272.3 0 245.2 0C218 0 191 0 163.8 0C136.7 0 109.3 0 82 0C54.7 0 27.3 0 13.7 0L0 0Z" fill="#6198ff"></path><path d="M0 301L13.7 291C27.3 281 54.7 261 82 264C109.3 267 136.7 293 163.8 295C191 297 218 275 245.2 275C272.3 275 299.7 297 327 301C354.3 305 381.7 291 409 276C436.3 261 463.7 245 491 237C518.3 229 545.7 229 573 244C600.3 259 627.7 289 654.8 286C682 283 709 247 736.2 230C763.3 213 790.7 215 818 223C845.3 231 872.7 245 886.3 252L900 259L900 143L886.3 141C872.7 139 845.3 135 818 131C790.7 127 763.3 123 736.2 113C709 103 682 87 654.8 75C627.7 63 600.3 55 573 66C545.7 77 518.3 107 491 124C463.7 141 436.3 145 409 133C381.7 121 354.3 93 327 93C299.7 93 272.3 121 245.2 119C218 117 191 85 163.8 84C136.7 83 109.3 113 82 120C54.7 127 27.3 111 13.7 103L0 95Z" fill="#3c80ff"></path><path d="M0 445L13.7 440C27.3 435 54.7 425 82 426C109.3 427 136.7 439 163.8 449C191 459 218 467 245.2 466C272.3 465 299.7 455 327 453C354.3 451 381.7 457 409 461C436.3 465 463.7 467 491 457C518.3 447 545.7 425 573 416C600.3 407 627.7 411 654.8 425C682 439 709 463 736.2 474C763.3 485 790.7 483 818 480C845.3 477 872.7 473 886.3 471L900 469L900 257L886.3 250C872.7 243 845.3 229 818 221C790.7 213 763.3 211 736.2 228C709 245 682 281 654.8 284C627.7 287 600.3 257 573 242C545.7 227 518.3 227 491 235C463.7 243 436.3 259 409 274C381.7 289 354.3 303 327 299C299.7 295 272.3 273 245.2 273C218 273 191 295 163.8 293C136.7 291 109.3 265 82 262C54.7 259 27.3 279 13.7 289L0 299Z" fill="#0066ff"></path><path d="M0 481L13.7 481C27.3 481 54.7 481 82 482C109.3 483 136.7 485 163.8 496C191 507 218 527 245.2 534C272.3 541 299.7 535 327 530C354.3 525 381.7 521 409 522C436.3 523 463.7 529 491 524C518.3 519 545.7 503 573 499C600.3 495 627.7 503 654.8 509C682 515 709 519 736.2 522C763.3 525 790.7 527 818 526C845.3 525 872.7 521 886.3 519L900 517L900 467L886.3 469C872.7 471 845.3 475 818 478C790.7 481 763.3 483 736.2 472C709 461 682 437 654.8 423C627.7 409 600.3 405 573 414C545.7 423 518.3 445 491 455C463.7 465 436.3 463 409 459C381.7 455 354.3 449 327 451C299.7 453 272.3 463 245.2 464C218 465 191 457 163.8 447C136.7 437 109.3 425 82 424C54.7 423 27.3 433 13.7 438L0 443Z" fill="#0059dd"></path><path d="M0 601L13.7 601C27.3 601 54.7 601 82 601C109.3 601 136.7 601 163.8 601C191 601 218 601 245.2 601C272.3 601 299.7 601 327 601C354.3 601 381.7 601 409 601C436.3 601 463.7 601 491 601C518.3 601 545.7 601 573 601C600.3 601 627.7 601 654.8 601C682 601 709 601 736.2 601C763.3 601 790.7 601 818 601C845.3 601 872.7 601 886.3 601L900 601L900 515L886.3 517C872.7 519 845.3 523 818 524C790.7 525 763.3 523 736.2 520C709 517 682 513 654.8 507C627.7 501 600.3 493 573 497C545.7 501 518.3 517 491 522C463.7 527 436.3 521 409 520C381.7 519 354.3 523 327 528C299.7 533 272.3 539 245.2 532C218 525 191 505 163.8 494C136.7 483 109.3 481 82 480C54.7 479 27.3 479 13.7 479L0 479Z" fill="#004cbb"></path></svg>