<svg id="visual" viewBox="0 0 900 600" width="900" height="600" xmlns="http://www.w3.org/2000/svg" xmlns:xlink="http://www.w3.org/1999/xlink" version="1.1"><path d="M0 97L13.7 87C27.3 77 54.7 57 82 58C109.3 59 136.7 81 163.8 86C191 91 218 79 245.2 74C272.3 69 299.7 71 327 76C354.3 81 381.7 89 409 91C436.3 93 463.7 89 491 84C518.3 79 545.7 73 573 67C600.3 61 627.7 55 654.8 60C682 65 709 81 736.2 83C763.3 85 790.7 73 818 70C845.3 67 872.7 73 886.3 76L900 79L900 0L886.3 0C872.7 0 845.3 0 818 0C790.7 0 763.3 0 736.2 0C709 0 682 0 654.8 0C627.7 0 600.3 0 573 0C545.7 0 518.3 0 491 0C463.7 0 436.3 0 409 0C381.7 0 354.3 0 327 0C299.7 0 272.3 0 245.2 0C218 0 191 0 163.8 0C136.7 0 109.3 0 82 0C54.7 0 27.3 0 13.7 0L0 0Z" fill="#6198ff"></path><path d="M0 217L13.7 228C27.3 239 54.7 261 82 259C109.3 257 136.7 231 163.8 234C191 237 218 269 245.2 296C272.3 323 299.7 345 327 342C354.3 339 381.7 311 409 286C436.3 261 463.7 239 491 233C518.3 227 545.7 237 573 237C600.3 237 627.7 227 654.8 235C682 243 709 269 736.2 257C763.3 245 790.7 195 818 204C845.3 213 872.7 281 886.3 315L900 349L900 77L886.3 74C872.7 71 845.3 65 818 68C790.7 71 763.3 83 736.2 81C709 79 682 63 654.8 58C627.7 53 600.3 59 573 65C545.7 71 518.3 77 491 82C463.7 87 436.3 91 409 89C381.7 87 354.3 79 327 74C299.7 69 272.3 67 245.2 72C218 77 191 89 163.8 84C136.7 79 109.3 57 82 56C54.7 55 27.3 75 13.7 85L0 95Z" fill="#3c80ff"></path><path d="M0 331L13.7 335C27.3 339 54.7 347 82 342C109.3 337 136.7 319 163.8 325C191 331 218 361 245.2 379C272.3 397 299.7 403 327 399C354.3 395 381.7 381 409 368C436.3 355 463.7 343 491 332C518.3 321 545.7 311 573 299C600.3 287 627.7 273 654.8 289C682 305 709 351 736.2 349C763.3 347 790.7 297 818 299C845.3 301 872.7 355 886.3 382L900 409L900 347L886.3 313C872.7 279 845.3 211 818 202C790.7 193 763.3 243 736.2 255C709 267 682 241 654.8 233C627.7 225 600.3 235 573 235C545.7 235 518.3 225 491 231C463.7 237 436.3 259 409 284C381.7 309 354.3 337 327 340C299.7 343 272.3 321 245.2 294C218 267 191 235 163.8 232C136.7 229 109.3 255 82 257C54.7 259 27.3 237 13.7 226L0 215Z" fill="#0066ff"></path><path d="M0 475L13.7 474C27.3 473 54.7 471 82 483C109.3 495 136.7 521 163.8 531C191 541 218 535 245.2 530C272.3 525 299.7 521 327 509C354.3 497 381.7 477 409 473C436.3 469 463.7 481 491 479C518.3 477 545.7 461 573 460C600.3 459 627.7 473 654.8 489C682 505 709 523 736.2 521C763.3 519 790.7 497 818 492C845.3 487 872.7 499 886.3 505L900 511L900 407L886.3 380C872.7 353 845.3 299 818 297C790.7 295 763.3 345 736.2 347C709 349 682 303 654.8 287C627.7 271 600.3 285 573 297C545.7 309 518.3 319 491 330C463.7 341 436.3 353 409 366C381.7 379 354.3 393 327 397C299.7 401 272.3 395 245.2 377C218 359 191 329 163.8 323C136.7 317 109.3 335 82 340C54.7 345 27.3 337 13.7 333L0 329Z" fill="#0059dd"></path><path d="M0 601L13.7 601C27.3 601 54.7 601 82 601C109.3 601 136.7 601 163.8 601C191 601 218 601 245.2 601C272.3 601 299.7 601 327 601C354.3 601 381.7 601 409 601C436.3 601 463.7 601 491 601C518.3 601 545.7 601 573 601C600.3 601 627.7 601 654.8 601C682 601 709 601 736.2 601C763.3 601 790.7 601 818 601C845.3 601 872.7 601 886.3 601L900 601L900 509L886.3 503C872.7 497 845.3 485 818 490C790.7 495 763.3 517 736.2 519C709 521 682 503 654.8 487C627.7 471 600.3 457 573 458C545.7 459 518.3 475 491 477C463.7 479 436.3 467 409 471C381.7 475 354.3 495 327 507C299.7 519 272.3 523 245.2 528C218 533 191 539 163.8 529C136.7 519 109.3 493 82 481C54.7 469 27.3 471 13.7 472L0 473Z" fill="#004cbb"></path></svg>