<svg id="visual" viewBox="0 0 900 600" width="900" height="600" xmlns="http://www.w3.org/2000/svg" xmlns:xlink="http://www.w3.org/1999/xlink" version="1.1"><path d="M0 175L13.7 180C27.3 185 54.7 195 82 203C109.3 211 136.7 217 163.8 221C191 225 218 227 245.2 211C272.3 195 299.7 161 327 146C354.3 131 381.7 135 409 129C436.3 123 463.7 107 491 112C518.3 117 545.7 143 573 147C600.3 151 627.7 133 654.8 153C682 173 709 231 736.2 251C763.3 271 790.7 253 818 233C845.3 213 872.7 191 886.3 180L900 169L900 0L886.3 0C872.7 0 845.3 0 818 0C790.7 0 763.3 0 736.2 0C709 0 682 0 654.8 0C627.7 0 600.3 0 573 0C545.7 0 518.3 0 491 0C463.7 0 436.3 0 409 0C381.7 0 354.3 0 327 0C299.7 0 272.3 0 245.2 0C218 0 191 0 163.8 0C136.7 0 109.3 0 82 0C54.7 0 27.3 0 13.7 0L0 0Z" fill="#6198ff"></path><path d="M0 259L13.7 263C27.3 267 54.7 275 82 279C109.3 283 136.7 283 163.8 282C191 281 218 279 245.2 269C272.3 259 299.7 241 327 225C354.3 209 381.7 195 409 186C436.3 177 463.7 173 491 186C518.3 199 545.7 229 573 235C600.3 241 627.7 223 654.8 234C682 245 709 285 736.2 300C763.3 315 790.7 305 818 289C845.3 273 872.7 251 886.3 240L900 229L900 167L886.3 178C872.7 189 845.3 211 818 231C790.7 251 763.3 269 736.2 249C709 229 682 171 654.8 151C627.7 131 600.3 149 573 145C545.7 141 518.3 115 491 110C463.7 105 436.3 121 409 127C381.7 133 354.3 129 327 144C299.7 159 272.3 193 245.2 209C218 225 191 223 163.8 219C136.7 215 109.3 209 82 201C54.7 193 27.3 183 13.7 178L0 173Z" fill="#3c80ff"></path><path d="M0 397L13.7 391C27.3 385 54.7 373 82 378C109.3 383 136.7 405 163.8 415C191 425 218 423 245.2 419C272.3 415 299.7 409 327 406C354.3 403 381.7 403 409 397C436.3 391 463.7 379 491 375C518.3 371 545.7 375 573 396C600.3 417 627.7 455 654.8 462C682 469 709 445 736.2 424C763.3 403 790.7 385 818 386C845.3 387 872.7 407 886.3 417L900 427L900 227L886.3 238C872.7 249 845.3 271 818 287C790.7 303 763.3 313 736.2 298C709 283 682 243 654.8 232C627.7 221 600.3 239 573 233C545.7 227 518.3 197 491 184C463.7 171 436.3 175 409 184C381.7 193 354.3 207 327 223C299.7 239 272.3 257 245.2 267C218 277 191 279 163.8 280C136.7 281 109.3 281 82 277C54.7 273 27.3 265 13.7 261L0 257Z" fill="#0066ff"></path><path d="M0 493L13.7 489C27.3 485 54.7 477 82 481C109.3 485 136.7 501 163.8 513C191 525 218 533 245.2 533C272.3 533 299.7 525 327 520C354.3 515 381.7 513 409 502C436.3 491 463.7 471 491 468C518.3 465 545.7 479 573 493C600.3 507 627.7 521 654.8 528C682 535 709 535 736.2 525C763.3 515 790.7 495 818 494C845.3 493 872.7 511 886.3 520L900 529L900 425L886.3 415C872.7 405 845.3 385 818 384C790.7 383 763.3 401 736.2 422C709 443 682 467 654.8 460C627.7 453 600.3 415 573 394C545.7 373 518.3 369 491 373C463.7 377 436.3 389 409 395C381.7 401 354.3 401 327 404C299.7 407 272.3 413 245.2 417C218 421 191 423 163.8 413C136.7 403 109.3 381 82 376C54.7 371 27.3 383 13.7 389L0 395Z" fill="#0059dd"></path><path d="M0 601L13.7 601C27.3 601 54.7 601 82 601C109.3 601 136.7 601 163.8 601C191 601 218 601 245.2 601C272.3 601 299.7 601 327 601C354.3 601 381.7 601 409 601C436.3 601 463.7 601 491 601C518.3 601 545.7 601 573 601C600.3 601 627.7 601 654.8 601C682 601 709 601 736.2 601C763.3 601 790.7 601 818 601C845.3 601 872.7 601 886.3 601L900 601L900 527L886.3 518C872.7 509 845.3 491 818 492C790.7 493 763.3 513 736.2 523C709 533 682 533 654.8 526C627.7 519 600.3 505 573 491C545.7 477 518.3 463 491 466C463.7 469 436.3 489 409 500C381.7 511 354.3 513 327 518C299.7 523 272.3 531 245.2 531C218 531 191 523 163.8 511C136.7 499 109.3 483 82 479C54.7 475 27.3 483 13.7 487L0 491Z" fill="#004cbb"></path></svg>